<?xml version="1.0" encoding="utf-8"?>
<!-- Generator: Adobe Illustrator 17.0.0, SVG Export Plug-In . SVG Version: 6.00 Build 0)  -->
<!DOCTYPE svg PUBLIC "-//W3C//DTD SVG 1.1//EN" "http://www.w3.org/Graphics/SVG/1.1/DTD/svg11.dtd">
<svg xmlns="http://www.w3.org/2000/svg" xmlns:xlink="http://www.w3.org/1999/xlink" version="1.1" id="Layer_1" x="0px" y="0px" width="50px" height="50px" viewBox="0 0 50 50" enable-background="new 0 0 50 50" xml:space="preserve" fill="#1571c4">
<rect x="0" fill="none" width="50" height="50"/>
<circle fill="none" stroke="#1571c4" stroke-width="2" stroke-linecap="round" stroke-linejoin="round" stroke-miterlimit="10" cx="25" cy="25" r="24"/>
<path d="M46.416,14.547c-2.738,0-11.242,0-17.024,0C28.04,13.98,26.557,13.666,25,13.666c-4.819,0-8.93,3.001-10.59,7.231  l-9.292-9.19c1.338,2.317,5.708,9.889,8.626,14.945c0.783,5.523,5.517,9.777,11.255,9.777c0.448,0,0.89-0.033,1.325-0.084  l-3.017,12.591c1.329-2.298,5.649-9.778,8.567-14.835c2.733-2.079,4.506-5.356,4.506-9.054c0-2.587-0.873-4.965-2.328-6.877  L46.416,14.547z M25,34c-4.971,0-9-4.029-9-9s4.029-9,9-9c4.97,0,9,4.029,9,9S29.97,34,25,34z" fill="#1571c4"/>
</svg>
