<?xml version="1.0" encoding="utf-8"?>
<!-- Generator: Adobe Illustrator 17.0.0, SVG Export Plug-In . SVG Version: 6.00 Build 0)  -->
<!DOCTYPE svg PUBLIC "-//W3C//DTD SVG 1.1//EN" "http://www.w3.org/Graphics/SVG/1.1/DTD/svg11.dtd">
<svg xmlns="http://www.w3.org/2000/svg" xmlns:xlink="http://www.w3.org/1999/xlink" version="1.1" id="Layer_1" x="0px" y="0px" width="50px" height="50px" viewBox="0 0 50 50" enable-background="new 0 0 50 50" xml:space="preserve" fill="#1571c4">
<rect x="0" fill="none" width="50" height="50"/>
<path fill="none" stroke="#1571c4" stroke-width="2" stroke-linecap="round" stroke-linejoin="round" stroke-miterlimit="10" d="  M3.697,14.663c0,0-0.255-6.052,2.485-9.078c0.669,4.396,2.771,5.32,2.771,5.32s1.433-0.733,3.568-0.733  c1.179,0,1.975,0.382,1.975,0.382s3.695-3.217,6.435-3.217c-3.345,3.026-3.6,5.192-3.6,5.192s1,1.132,1.593,1.656  c0.828,0.733,0.961,1.008,2.612,1.147c0.887,0.074,1.433,0.096,1.433,0.096s0.382,0.088,0.382,0.446c0,0.414-0.444,1.142-0.86,1.433  c-0.224,0.157-2.555,1.629-3.256,2.521c0.156,0.312,1.141,1.938,0.812,3.781c-0.359-0.016-1.609-0.359-3.391-0.641  c-1.359,0.203-1.428,1.473-1.428,1.856c0.085,0.301,3.022,3.95,5.447,3.95c2.389,0,2.826-1.555,5.247-1.555  c2.109,0,3.547,1.609,3.547,2.312c0,0.478-0.531,0.766-0.862,0.676c-0.614-0.166-0.904-0.176-1.513,0.261  c-0.285,0.205-3.75,3.297-8.922,2.875c0.875,0.828,3.745,3.776,9.033,3.776s9.493-6.466,9.493-6.466s0.085,2.272-0.542,3.822  c3.991-3.943,2.645-11.718,2.645-11.718s1.276,1.469,1.495,3.103c0.752-3.316,1.121-6.953-0.286-9.764  c0.473-0.03,1.482,0.568,1.968,1.391c0.673-4.411-4.448-7.215-9.271-9.271c0.635-0.224,1.757-0.486,3.028-0.224  c-0.262-0.822-2.362-3.028-5.42-3.028c10.728,0.037,13.682,5.458,14.616,8.486c0.032-0.529-0.366-3.349-0.685-4.234  c2.89,2.851,3.6,9.365,3.6,11.85c0.452-0.079,0.707-2.404,0.73-2.518c0.099,0.416,0.416,1.725,0.416,3.549  c0,5.237-5.243,25.854-24.017,25.854c-15.642,0-23.604-13.117-23.604-21.916c0-3.344,1.115-5.989,1.115-5.989l-1.402,1.083  c0,0-0.096-0.096-0.096-0.86C0.989,19.327,1.311,18.104,3.697,14.663z"/>
<path fill="none" stroke="#1571c4" stroke-width="2" stroke-linecap="round" stroke-linejoin="round" stroke-miterlimit="10" d="  M7.755,9.874c4.211-4.852,10.424-7.92,17.353-7.92c5.354,0,10.281,1.832,14.187,4.904"/>
</svg>
