<?xml version="1.0" encoding="utf-8"?>
<!-- Generator: Adobe Illustrator 17.0.0, SVG Export Plug-In . SVG Version: 6.00 Build 0)  -->
<!DOCTYPE svg PUBLIC "-//W3C//DTD SVG 1.1//EN" "http://www.w3.org/Graphics/SVG/1.1/DTD/svg11.dtd">
<svg xmlns="http://www.w3.org/2000/svg" xmlns:xlink="http://www.w3.org/1999/xlink" version="1.1" id="Layer_1" x="0px" y="0px" width="50px" height="50px" viewBox="0 0 50 50" enable-background="new 0 0 50 50" xml:space="preserve" fill="#1571c4">
<rect x="0" fill="none" width="50" height="50"/>
<path fill="none" stroke="#1571c4" stroke-width="2" stroke-linecap="round" stroke-linejoin="round" stroke-miterlimit="10" d="  M8.249,35.209c3.429,5.802,10.062,8.153,16.376,8.153c14.382,0,19.008-12.674,19.008-12.674H30.868c0,0-0.898,4.137-5.482,4.137  c-6.292,0-5.932-6.564-5.932-6.564h24.358c0.778-11.254-5.3-17.702-13.789-19.511 M24.795,8.219c-2.873,0-6.938,0.507-11.004,2.964  c-8.18,5.214-7.91,14.471-7.91,14.471c0,1.535,0.138,2.955,0.395,4.267 M31.007,22.51H19.422c0,0-0.147-5.645,5.939-5.645  C31.239,16.865,31.007,22.51,31.007,22.51z"/>
<path fill-rule="evenodd" clip-rule="evenodd" fill="none" stroke="#1571c4" stroke-width="2" stroke-linecap="round" stroke-linejoin="round" stroke-miterlimit="10" d="  M22.042,43.421c-7.239,5.182-13.861,7.092-17.099,4.286c-4.94-4.281-0.134-17.917,10.733-30.458S39.358-1.988,44.297,2.293  c3.087,2.675,2.368,9.006-1.259,16.439"/>
<path fill-rule="evenodd" clip-rule="evenodd" fill="none" stroke="#1571c4" stroke-width="2" stroke-linecap="round" stroke-linejoin="round" stroke-miterlimit="10" d="  M17.508,42.571c-4.445,2.778-8.137,3.713-9.962,2.132c-3.527-3.056,1.259-14.355,10.688-25.237S38.168,2.241,41.694,5.297  c1.843,1.597,1.416,5.444-0.756,10.306"/>
</svg>
