<?xml version="1.0" encoding="utf-8"?>
<!-- Generator: Adobe Illustrator 17.0.0, SVG Export Plug-In . SVG Version: 6.00 Build 0)  -->
<!DOCTYPE svg PUBLIC "-//W3C//DTD SVG 1.1//EN" "http://www.w3.org/Graphics/SVG/1.1/DTD/svg11.dtd">
<svg xmlns="http://www.w3.org/2000/svg" xmlns:xlink="http://www.w3.org/1999/xlink" version="1.1" id="Layer_1" x="0px" y="0px" width="50px" height="50px" viewBox="0 0 50 50" enable-background="new 0 0 50 50" xml:space="preserve" fill="#1571c4">
<rect x="0" fill="none" width="50" height="50"/>
<path fill="none" stroke="#1571c4" stroke-width="2" stroke-linecap="round" stroke-linejoin="round" stroke-miterlimit="10" d="  M24.914,43.377c7.52,0,8.197-11.347,8.197-18.982c0-8.79-1.319-18.377-8.197-18.377c-6.874,0-8.026,10.195-8.026,18.377  c-0.001,7.566,0.616,18.984,8.026,18.984V43.377z M24.912,1C37.545,1,47,10.399,47,24.777C47,37.476,38.042,49,24.912,49  C11.91,49,3,37.472,3,24.777C3,10.512,12.163,1,24.912,1z"/>
</svg>
