<?xml version="1.0" encoding="utf-8"?>
<!-- Generator: Adobe Illustrator 18.0.0, SVG Export Plug-In . SVG Version: 6.00 Build 0)  -->
<!DOCTYPE svg PUBLIC "-//W3C//DTD SVG 1.0//EN" "http://www.w3.org/TR/2001/REC-SVG-20010904/DTD/svg10.dtd">
<svg xmlns="http://www.w3.org/2000/svg" xmlns:xlink="http://www.w3.org/1999/xlink" version="1.0" id="Layer_1" x="0px" y="0px" viewBox="0 0 24 24" enable-background="new 0 0 24 24" xml:space="preserve" fill="#097708">
<path d="M12,2C8.7,2,6,4.7,6,8c0,5.2,6,11.1,6,11.1s6-6,6-11.1C18,4.7,15.3,2,12,2z M12,10.1c-1.2,0-2.1-1-2.1-2.1  c0-1.2,1-2.1,2.1-2.1s2.1,1,2.1,2.1C14.1,9.2,13.2,10.1,12,10.1z" fill="#097708"/>
<path fill="none" stroke="#097708" stroke-width="2" stroke-linejoin="round" stroke-miterlimit="10" d="M7,16.1  c-2.4,0.5-4,1.3-4,2.2c0,1.5,4,2.7,9,2.7s9-1.2,9-2.7c0-0.9-1.6-1.8-4-2.2"/>
</svg>
